HIERARCHY
ROOT Hips
{
	OFFSET 0.000000 0.000000 0.000000
	CHANNELS 6 Xposition Yposition Zposition Zrotation Yrotation Xrotation 
	JOINT Spine1
	{
		OFFSET -0.013727 5.003762 -0.053727
		CHANNELS 3 Zrotation Yrotation Xrotation
		JOINT Spine2
		{
			OFFSET -0.000000 7.125302 -0.029825
			CHANNELS 3 Zrotation Yrotation Xrotation
			JOINT Chest
			{
				OFFSET -0.000001 7.550065 -0.815971
				CHANNELS 3 Zrotation Yrotation Xrotation
				JOINT Neck1
				{
					OFFSET -0.181677 26.311296 -0.553348
					CHANNELS 3 Zrotation Yrotation Xrotation
					JOINT Neck2
					{
						OFFSET -0.000003 7.709398 2.302586
						CHANNELS 3 Zrotation Yrotation Xrotation
						JOINT Head
						{
							OFFSET -0.000005 6.128915 1.953707
							CHANNELS 3 Zrotation Yrotation Xrotation
							JOINT HeadEnd
							{
								OFFSET 0.003598 16.065401 -1.835380
								CHANNELS 3 Zrotation Yrotation Xrotation
								End Site
								{
									OFFSET 0.000000 0.000000 0.000000
								}
							}
							JOINT Jaw
							{
								OFFSET 0.002637 0.475591 3.094941
								CHANNELS 3 Zrotation Yrotation Xrotation
								End Site
								{
									OFFSET 0.000000 0.000000 0.000000
								}
							}
							JOINT LeftEye
							{
								OFFSET 3.206380 5.380209 7.586882
								CHANNELS 3 Zrotation Yrotation Xrotation
								End Site
								{
									OFFSET 0.000000 0.000000 0.000000
								}
							}
							JOINT RightEye
							{
								OFFSET -3.222440 5.361867 7.558234
								CHANNELS 3 Zrotation Yrotation Xrotation
								End Site
								{
									OFFSET 0.000000 0.000000 0.000000
								}
							}
						}
					}
				}
				JOINT LeftShoulder
				{
					OFFSET 1.621651 23.237164 5.113413
					CHANNELS 3 Zrotation Yrotation Xrotation
					JOINT LeftArm
					{
						OFFSET 14.919845 0.000000 -5.502326
						CHANNELS 3 Zrotation Yrotation Xrotation
						JOINT LeftForeArm
						{
							OFFSET 28.739309 0.000003 -0.002588
							CHANNELS 3 Zrotation Yrotation Xrotation
							JOINT LeftHand
							{
								OFFSET 27.093979 -0.000003 0.002609
								CHANNELS 3 Zrotation Yrotation Xrotation
								JOINT LeftHandThumb1
								{
									OFFSET 2.276480 -1.392045 3.191414
									CHANNELS 3 Zrotation Yrotation Xrotation
									JOINT LeftHandThumb2
									{
										OFFSET 4.012841 -1.828126 1.641655
										CHANNELS 3 Zrotation Yrotation Xrotation
										JOINT LeftHandThumb3
										{
											OFFSET 2.798516 -0.000000 -0.000003
											CHANNELS 3 Zrotation Yrotation Xrotation
											JOINT LeftHandThumbEnd
											{
												OFFSET 3.180790 -0.000001 0.000002
												CHANNELS 3 Zrotation Yrotation Xrotation
												End Site
												{
													OFFSET 0.000000 0.000000 0.000000
												}
											}
										}
									}
								}
								JOINT LeftHandIndex1
								{
									OFFSET 3.247553 -0.531998 2.296170
									CHANNELS 3 Zrotation Yrotation Xrotation
									JOINT LeftHandIndex2
									{
										OFFSET 6.364578 0.012062 0.178600
										CHANNELS 3 Zrotation Yrotation Xrotation
										JOINT LeftHandIndex3
										{
											OFFSET 3.662366 0.000001 0.000000
											CHANNELS 3 Zrotation Yrotation Xrotation
											JOINT LeftHandIndex4
											{
												OFFSET 2.329241 0.000003 0.000004
												CHANNELS 3 Zrotation Yrotation Xrotation
												JOINT LeftHandIndexEnd
												{
													OFFSET 2.759619 -0.180539 -0.113024
													CHANNELS 3 Zrotation Yrotation Xrotation
													End Site
													{
														OFFSET 0.000000 0.000000 0.000000
													}
												}
											}
										}
									}
								}
								JOINT LeftHandMiddle1
								{
									OFFSET 3.163499 0.240982 1.000333
									CHANNELS 3 Zrotation Yrotation Xrotation
									JOINT LeftHandMiddle2
									{
										OFFSET 6.190778 -0.259276 -1.002549
										CHANNELS 3 Zrotation Yrotation Xrotation
										JOINT LeftHandMiddle3
										{
											OFFSET 4.356522 -0.000006 0.000000
											CHANNELS 3 Zrotation Yrotation Xrotation
											JOINT LeftHandMiddle4
											{
												OFFSET 2.996875 -0.000006 0.000001
												CHANNELS 3 Zrotation Yrotation Xrotation
												JOINT LeftHandMiddleEnd
												{
													OFFSET 2.304294 -0.294572 -0.031740
													CHANNELS 3 Zrotation Yrotation Xrotation
													End Site
													{
														OFFSET 0.000000 0.000000 0.000000
													}
												}
											}
										}
									}
								}
								JOINT LeftHandRing1
								{
									OFFSET 2.882641 -0.053650 -0.322543
									CHANNELS 3 Zrotation Yrotation Xrotation
									JOINT LeftHandRing2
									{
										OFFSET 5.854543 -0.486203 -1.373840
										CHANNELS 3 Zrotation Yrotation Xrotation
										JOINT LeftHandRing3
										{
											OFFSET 4.350580 0.000001 0.000003
											CHANNELS 3 Zrotation Yrotation Xrotation
											JOINT LeftHandRing4
											{
												OFFSET 2.651324 0.000008 0.000003
												CHANNELS 3 Zrotation Yrotation Xrotation
												JOINT LeftHandRingEnd
												{
													OFFSET 1.936110 0.077684 -0.000070
													CHANNELS 3 Zrotation Yrotation Xrotation
													End Site
													{
														OFFSET 0.000000 0.000000 0.000000
													}
												}
											}
										}
									}
								}
								JOINT LeftHandPinky1
								{
									OFFSET 2.865499 -0.310004 -1.600378
									CHANNELS 3 Zrotation Yrotation Xrotation
									JOINT LeftHandPinky2
									{
										OFFSET 5.087853 -1.331141 -1.771231
										CHANNELS 3 Zrotation Yrotation Xrotation
										JOINT LeftHandPinky3
										{
											OFFSET 3.070975 0.000003 0.000001
											CHANNELS 3 Zrotation Yrotation Xrotation
											JOINT LeftHandPinky4
											{
												OFFSET 1.549667 -0.000000 0.000002
												CHANNELS 3 Zrotation Yrotation Xrotation
												JOINT LeftHandPinkyEnd
												{
													OFFSET 1.944894 -0.157802 0.057218
													CHANNELS 3 Zrotation Yrotation Xrotation
													End Site
													{
														OFFSET 0.000000 0.000000 0.000000
													}
												}
											}
										}
									}
								}
							}
						}
					}
				}
				JOINT RightShoulder
				{
					OFFSET -1.380118 23.180309 5.214157
					CHANNELS 3 Zrotation Yrotation Xrotation
					JOINT RightArm
					{
						OFFSET -15.037197 0.000012 -5.545604
						CHANNELS 3 Zrotation Yrotation Xrotation
						JOINT RightForeArm
						{
							OFFSET -28.736639 0.000002 -0.002597
							CHANNELS 3 Zrotation Yrotation Xrotation
							JOINT RightHand
							{
								OFFSET -27.133617 0.000000 0.002613
								CHANNELS 3 Zrotation Yrotation Xrotation
								JOINT RightHandThumb1
								{
									OFFSET -2.274036 -1.383990 3.163127
									CHANNELS 3 Zrotation Yrotation Xrotation
									JOINT RightHandThumb2
									{
										OFFSET -4.011429 -1.827468 1.640914
										CHANNELS 3 Zrotation Yrotation Xrotation
										JOINT RightHandThumb3
										{
											OFFSET -2.794935 -0.000003 -0.000003
											CHANNELS 3 Zrotation Yrotation Xrotation
											JOINT RightHandThumbEnd
											{
												OFFSET -3.183855 0.000003 -0.000000
												CHANNELS 3 Zrotation Yrotation Xrotation
												End Site
												{
													OFFSET 0.000000 0.000000 0.000000
												}
											}
										}
									}
								}
								JOINT RightHandIndex1
								{
									OFFSET -3.253269 -0.520059 2.282866
									CHANNELS 3 Zrotation Yrotation Xrotation
									JOINT RightHandIndex2
									{
										OFFSET -6.341918 0.012473 0.178266
										CHANNELS 3 Zrotation Yrotation Xrotation
										JOINT RightHandIndex3
										{
											OFFSET -3.654876 -0.000008 -0.000001
											CHANNELS 3 Zrotation Yrotation Xrotation
											JOINT RightHandIndex4
											{
												OFFSET -2.327587 -0.000000 -0.000000
												CHANNELS 3 Zrotation Yrotation Xrotation
												JOINT RightHandIndexEnd
												{
													OFFSET -2.761789 -0.180657 -0.113078
													CHANNELS 3 Zrotation Yrotation Xrotation
													End Site
													{
														OFFSET 0.000000 0.000000 0.000000
													}
												}
											}
										}
									}
								}
								JOINT RightHandMiddle1
								{
									OFFSET -3.168107 0.246593 1.001030
									CHANNELS 3 Zrotation Yrotation Xrotation
									JOINT RightHandMiddle2
									{
										OFFSET -6.180830 -0.258835 -1.000896
										CHANNELS 3 Zrotation Yrotation Xrotation
										JOINT RightHandMiddle3
										{
											OFFSET -4.348905 -0.000000 -0.000001
											CHANNELS 3 Zrotation Yrotation Xrotation
											JOINT RightHandMiddle4
											{
												OFFSET -3.000242 -0.000004 -0.000001
												CHANNELS 3 Zrotation Yrotation Xrotation
												JOINT RightHandMiddleEnd
												{
													OFFSET -2.302518 -0.294371 -0.031707
													CHANNELS 3 Zrotation Yrotation Xrotation
													End Site
													{
														OFFSET 0.000000 0.000000 0.000000
													}
												}
											}
										}
									}
								}
								JOINT RightHandRing1
								{
									OFFSET -2.885693 -0.067952 -0.308858
									CHANNELS 3 Zrotation Yrotation Xrotation
									JOINT RightHandRing2
									{
										OFFSET -5.854198 -0.486132 -1.373731
										CHANNELS 3 Zrotation Yrotation Xrotation
										JOINT RightHandRing3
										{
											OFFSET -4.338814 -0.000003 -0.000000
											CHANNELS 3 Zrotation Yrotation Xrotation
											JOINT RightHandRing4
											{
												OFFSET -2.654905 -0.000005 0.000005
												CHANNELS 3 Zrotation Yrotation Xrotation
												JOINT RightHandRingEnd
												{
													OFFSET -1.933570 0.077524 -0.000053
													CHANNELS 3 Zrotation Yrotation Xrotation
													End Site
													{
														OFFSET 0.000000 0.000000 0.000000
													}
												}
											}
										}
									}
								}
								JOINT RightHandPinky1
								{
									OFFSET -2.866429 -0.342799 -1.584145
									CHANNELS 3 Zrotation Yrotation Xrotation
									JOINT RightHandPinky2
									{
										OFFSET -5.091371 -1.332054 -1.772386
										CHANNELS 3 Zrotation Yrotation Xrotation
										JOINT RightHandPinky3
										{
											OFFSET -3.062667 -0.000006 0.000000
											CHANNELS 3 Zrotation Yrotation Xrotation
											JOINT RightHandPinky4
											{
												OFFSET -1.546527 0.000005 -0.000001
												CHANNELS 3 Zrotation Yrotation Xrotation
												JOINT RightHandPinkyEnd
												{
													OFFSET -1.945122 -0.157721 0.057212
													CHANNELS 3 Zrotation Yrotation Xrotation
													End Site
													{
														OFFSET 0.000000 0.000000 0.000000
													}
												}
											}
										}
									}
								}
							}
						}
					}
				}
			}
		}
	}
	JOINT LeftLeg
	{
		OFFSET 10.043214 -8.434526 2.595654
		CHANNELS 3 Zrotation Yrotation Xrotation
		JOINT LeftShin
		{
			OFFSET -0.000001 -43.221752 -0.802912
			CHANNELS 3 Zrotation Yrotation Xrotation
			JOINT LeftFoot
			{
				OFFSET 0.000002 -42.155094 -3.481523
				CHANNELS 3 Zrotation Yrotation Xrotation
				JOINT LeftToeBase
				{
					OFFSET 0.000001 -5.059475 13.231529
					CHANNELS 3 Zrotation Yrotation Xrotation
					JOINT LeftToeEnd
					{
						OFFSET -0.009607 -1.647615 6.513018
						CHANNELS 3 Zrotation Yrotation Xrotation
						End Site
						{
							OFFSET 0.000000 0.000000 0.000000
						}
					}
				}
			}
		}
	}
	JOINT RightLeg
	{
		OFFSET -10.047277 -8.295259 2.620317
		CHANNELS 3 Zrotation Yrotation Xrotation
		JOINT RightShin
		{
			OFFSET 0.000000 -43.362209 -0.805556
			CHANNELS 3 Zrotation Yrotation Xrotation
			JOINT RightFoot
			{
				OFFSET 0.000002 -42.117393 -3.478397
				CHANNELS 3 Zrotation Yrotation Xrotation
				JOINT RightToeBase
				{
					OFFSET -0.000001 -5.079609 13.284196
					CHANNELS 3 Zrotation Yrotation Xrotation
					JOINT RightToeEnd
					{
						OFFSET 0.009532 -1.634383 6.460591
						CHANNELS 3 Zrotation Yrotation Xrotation
						End Site
						{
							OFFSET 0.000000 0.000000 0.000000
						}
					}
				}
			}
		}
	}
}
MOTION
Frames: 4
Frame Time: 0.033333
-12.718008 83.967484 -9.215391 8.368858 2.143963 -18.020588 2.290657 2.267481 4.148021 0.282019 6.370312 -4.088596 -1.763529 6.726565 10.158286 -7.482405 19.188150 47.290588 0.821828 3.078605 -3.747387 2.056266 4.165865 3.222288 0.000077 -0.000023 0.000004 0.004190 -0.036358 -0.119852 0.829900 -3.764003 -10.710811 -0.830667 3.675043 -10.665998 15.453545 4.549464 9.616470 3.792017 -12.647074 -71.376480 43.600063 -81.956329 -46.371193 38.903851 -6.374150 -15.976629 -5.882101 9.861278 0.702589 -10.936858 -0.360576 7.156197 0.000001 8.774812 -0.000002 -15.500920 15.154454 7.368269 -1.844030 2.498502 -2.507276 -10.163589 4.678939 4.621104 -20.975994 -0.000005 0.000002 -21.226254 2.451691 -3.593993 0.000000 -0.000006 -0.000000 -1.362680 2.240796 -0.746323 -21.334887 0.584907 3.008320 -13.821195 -0.000001 0.000002 -23.887125 -0.249079 -0.839481 -56.651566 2.104748 -0.175499 -0.294024 1.679686 0.833255 -14.218192 0.093214 1.300579 -34.211998 -0.287566 0.967171 -20.033176 0.964533 1.212843 0.000001 0.000000 -0.000000 -3.440386 0.788232 0.501655 -15.928169 -3.167308 2.999703 -6.338817 -0.000002 0.000001 -18.123415 3.648175 -4.905662 -0.000003 0.000000 -0.000002 -21.062263 24.272276 1.075967 -31.648743 13.839416 -80.031448 -36.163464 86.347511 -36.140995 -26.155087 -2.410543 15.716367 2.243541 -5.255033 -3.180154 14.282878 -0.826595 6.952495 -0.000001 -12.690590 0.000000 16.976599 -15.776143 3.364098 1.665665 -1.955920 -2.878296 4.727796 -4.170585 4.993919 11.020513 0.000002 0.000000 12.109035 -3.735711 -2.866778 -0.000000 -0.000000 -0.000001 1.291984 -1.928547 -1.498088 14.800111 0.567467 3.865600 14.242556 -1.341734 -6.660648 19.631941 0.143927 -0.648244 51.722961 -1.894006 -5.533036 0.353027 -1.511150 -0.031940 20.222773 3.684309 2.316627 18.787249 0.000005 -0.000001 10.751612 -0.479867 1.397903 0.000001 0.000002 -0.000001 3.273805 0.305948 -0.580110 21.486795 11.830364 2.266130 8.162917 0.000002 -0.000001 18.399057 -3.798980 -4.940570 0.000003 0.000001 -0.000001 10.728360 20.192726 -22.988766 -0.840848 -0.974227 35.367649 -12.222439 2.912514 13.884081 1.681120 -1.979842 1.795246 0.000000 0.000000 0.000002 -31.495148 -9.176407 23.510380 0.170868 1.834169 46.407799 23.287685 -4.203438 -31.670341 -1.460160 0.568582 -5.134632 -0.000000 0.000001 -0.000001 
-13.604591 83.743622 -10.212955 8.478440 2.473335 -18.642803 2.361979 2.242573 3.770110 0.386526 6.452479 -4.196509 -1.609530 6.809370 10.053262 -7.115880 18.746574 46.818764 0.701304 3.407409 -3.720750 2.119887 4.253829 3.041864 0.000076 -0.000020 0.000004 -0.035097 0.014350 -0.123016 0.804636 -3.742505 -10.762422 -0.868179 3.721681 -10.717148 15.298920 4.924959 9.425286 3.692747 -12.786634 -71.325760 51.775913 -82.457245 -55.102798 38.842133 -6.151571 -17.675440 -5.882101 9.861278 0.702591 -10.936858 -0.360575 7.156199 0.000000 8.774814 -0.000001 -15.520636 15.043756 7.111715 -1.844029 2.498503 -2.507276 -10.163589 4.678940 4.621104 -20.975994 -0.000003 0.000003 -21.226255 2.451692 -3.593994 0.000000 -0.000006 0.000000 -1.362680 2.240796 -0.746323 -21.334887 0.584909 3.008321 -13.821195 -0.000002 0.000003 -23.887131 -0.249077 -0.839480 -56.048927 2.074582 -0.297292 -0.294024 1.679685 0.833255 -14.218194 0.093214 1.300580 -34.211998 -0.287561 0.967170 -20.033178 0.964537 1.212840 -0.000000 0.000002 -0.000001 -3.440383 0.788233 0.501656 -15.928169 -3.167306 2.999705 -6.338816 -0.000002 0.000002 -18.123413 3.648180 -4.905661 -0.000003 0.000000 -0.000002 -20.762125 24.415146 1.216515 -31.828468 14.071282 -78.786858 -33.704262 84.430595 -33.311371 -25.392277 -2.573916 16.292860 2.243541 -5.255033 -3.180154 14.282875 -0.826595 6.952498 -0.000002 -12.690592 -0.000002 16.816229 -15.796806 3.427435 1.665666 -1.955918 -2.878296 4.727793 -4.170586 4.993920 11.020510 0.000002 -0.000002 12.109033 -3.735710 -2.866778 -0.000000 0.000001 -0.000003 1.291985 -1.928551 -1.498087 14.800109 0.567467 3.865602 14.242553 -1.341735 -6.660650 19.631939 0.143925 -0.648244 51.487015 -1.937380 -5.566010 0.353028 -1.511152 -0.031940 20.222763 3.684303 2.316627 18.787243 0.000002 -0.000001 10.751610 -0.479867 1.397903 0.000001 0.000002 0.000001 3.273804 0.305947 -0.580109 21.486788 11.830360 2.266131 8.162917 0.000001 0.000001 18.399052 -3.798983 -4.940568 0.000004 0.000000 -0.000001 11.057655 19.455667 -21.995604 -0.809340 -0.916170 33.175354 -12.545906 3.363037 15.579213 1.686047 -1.978809 1.731173 -0.000000 0.000000 0.000002 -32.029778 -10.421481 23.674595 0.160892 1.815523 46.612309 23.213207 -3.502033 -34.769020 -1.457010 0.548014 -3.658164 -0.000000 0.000001 -0.000001 
-14.257066 83.512108 -11.057506 8.439424 2.629100 -18.981653 2.305054 2.225327 3.302660 0.384316 6.519533 -4.261583 -1.296421 6.712007 9.948160 -6.771190 18.600775 46.678642 0.690699 3.435602 -3.808110 1.994981 4.312320 2.783558 0.000077 -0.000022 0.000004 -0.039397 0.025625 -0.143563 0.800761 -3.737310 -10.800349 -0.876449 3.754762 -10.748957 15.358074 4.986694 9.384692 4.467687 -12.652407 -70.798340 46.708401 -81.954407 -51.090569 39.290833 -6.503808 -18.935495 -5.882099 9.861278 0.702590 -10.936857 -0.360573 7.156196 0.000000 8.774814 -0.000001 -15.870388 15.258773 6.990993 -1.844029 2.498502 -2.507275 -10.163588 4.678939 4.621104 -20.975992 -0.000004 0.000003 -21.226250 2.451691 -3.593992 0.000001 -0.000006 0.000000 -1.362681 2.240797 -0.746322 -21.334888 0.584908 3.008322 -13.821192 -0.000002 0.000003 -23.887125 -0.249077 -0.839479 -56.550804 2.094885 -0.434069 -0.294024 1.679687 0.833256 -14.218189 0.093214 1.300580 -34.211998 -0.287563 0.967172 -20.033176 0.964536 1.212841 0.000002 0.000001 0.000000 -3.440385 0.788233 0.501655 -15.928164 -3.167308 2.999703 -6.338815 -0.000001 0.000001 -18.123411 3.648178 -4.905662 -0.000003 0.000001 -0.000002 -20.185881 24.213459 1.381838 -31.349289 14.211704 -76.818184 -28.718809 81.856514 -27.400400 -24.757038 -2.583549 15.622985 2.243541 -5.255034 -3.180156 14.282875 -0.826594 6.952498 -0.000002 -12.690590 0.000000 16.598276 -15.850901 3.495129 1.665664 -1.955921 -2.878297 4.727792 -4.170583 4.993918 11.020511 0.000003 0.000000 12.109031 -3.735712 -2.866778 -0.000000 0.000001 -0.000002 1.291985 -1.928547 -1.498088 14.800113 0.567467 3.865604 14.242551 -1.341735 -6.660647 19.631935 0.143926 -0.648243 51.426426 -1.949282 -5.654609 0.353028 -1.511149 -0.031940 20.222767 3.684306 2.316629 18.787243 0.000004 -0.000000 10.751610 -0.479869 1.397905 0.000001 0.000001 -0.000001 3.273802 0.305948 -0.580110 21.486788 11.830359 2.266134 8.162917 0.000002 0.000003 18.399050 -3.798980 -4.940566 0.000003 0.000001 -0.000003 11.406462 19.191622 -21.659124 -0.786363 -0.797820 31.878635 -12.703451 3.483935 17.148317 1.693013 -1.967760 1.663626 -0.000000 -0.000001 0.000002 -32.219234 -11.331812 23.521812 0.140069 1.674640 46.892319 23.277626 -2.702219 -37.305843 -1.454120 0.568388 -2.588860 -0.000000 0.000001 -0.000001 
-14.736650 83.367966 -11.742965 8.270256 2.756340 -19.265089 2.238166 2.212918 2.942537 0.359625 6.416840 -4.346547 -0.952588 6.493344 9.898624 -6.587460 18.604450 46.785534 0.616915 3.474912 -3.830219 1.877048 4.135802 2.654574 0.000076 -0.000022 0.000003 -0.086593 0.086487 -0.126437 0.747351 -3.673120 -10.818922 -0.913237 3.818527 -10.781671 15.448749 4.900549 9.364677 5.319848 -12.373591 -69.560501 35.179077 -80.651230 -39.786808 39.604897 -6.248797 -20.121702 -5.882101 9.861278 0.702589 -10.936858 -0.360575 7.156196 0.000000 8.774811 -0.000001 -15.984559 15.490491 7.037663 -1.844030 2.498502 -2.507275 -10.163589 4.678937 4.621104 -20.975992 -0.000003 0.000002 -21.226250 2.451692 -3.593993 0.000001 -0.000006 -0.000000 -1.362680 2.240797 -0.746323 -21.334888 0.584909 3.008320 -13.821193 -0.000002 0.000002 -23.887131 -0.249078 -0.839481 -57.121441 2.132291 -0.510496 -0.294023 1.679686 0.833256 -14.218190 0.093214 1.300579 -34.212002 -0.287563 0.967170 -20.033178 0.964536 1.212842 -0.000001 0.000001 0.000000 -3.440385 0.788232 0.501656 -15.928164 -3.167306 2.999704 -6.338817 -0.000001 0.000002 -18.123415 3.648175 -4.905662 -0.000004 0.000001 -0.000002 -19.129913 23.666451 1.856793 -30.526703 14.374190 -75.203445 -21.540800 79.169121 -19.678263 -24.151989 -2.234529 14.507516 2.243540 -5.255031 -3.180155 14.282878 -0.826592 6.952497 -0.000003 -12.690592 -0.000001 16.505569 -15.965852 3.389625 1.665666 -1.955919 -2.878295 4.727793 -4.170582 4.993919 11.020513 0.000004 -0.000001 12.109033 -3.735710 -2.866778 0.000001 0.000002 0.000000 1.291984 -1.928548 -1.498088 14.800113 0.567468 3.865604 14.242553 -1.341735 -6.660645 19.631939 0.143924 -0.648242 50.966881 -1.852566 -5.648028 0.353028 -1.511150 -0.031940 20.222769 3.684307 2.316628 18.787247 0.000007 -0.000001 10.751611 -0.479867 1.397904 0.000000 0.000001 0.000000 3.273804 0.305947 -0.580110 21.486795 11.830360 2.266132 8.162918 0.000001 0.000001 18.399055 -3.798980 -4.940567 0.000003 0.000000 -0.000002 11.746536 19.209867 -21.327328 -0.754055 -0.746201 30.688267 -12.577899 3.528195 18.466356 1.698075 -1.963849 1.688073 -0.000000 -0.000001 0.000002 -32.291256 -12.122237 23.337795 0.145306 1.639222 47.379406 23.063515 -2.166794 -38.637905 -1.461752 0.548611 -1.769061 0.000000 0.000002 -0.000001 
